<svg width="20" height="24" viewBox="0 0 20 24" fill="none" xmlns="http://www.w3.org/2000/svg">
<path fill-rule="evenodd" clip-rule="evenodd" d="M11.6127 2.04385C11.6127 3.16577 10.7096 4.07609 9.59476 4.07609V4.07523C8.48074 4.07523 7.57683 3.16491 7.57683 2.04299C7.57683 0.921063 8.47988 0.0107422 9.59476 0.0107422C10.7096 0.0107422 11.6127 0.921927 11.6127 2.04385ZM12.8906 10.0481H16.2198C17.8612 10.0481 19.1914 11.3876 19.1914 13.0407H13.4394L15.7078 15.3252C16.8681 16.4937 16.8681 18.3887 15.7078 19.5572L11.0373 14.8536V21.5739C11.0373 22.9083 9.9636 23.9896 8.63861 23.9896H8.1695V14.8018L3.36436 19.641C2.20403 18.4724 2.20403 16.5775 3.36436 15.409L5.7159 13.0399H0C0 11.3868 1.33014 10.0472 2.97158 10.0472H6.26563L2.23834 5.99136C3.39867 4.8228 5.28024 4.8228 6.44058 5.99136L9.57854 9.15157L12.5313 6.17792C13.6916 5.00936 15.5732 5.00936 16.7335 6.17792L12.8906 10.0481Z" fill="#6C40ED"/>
</svg>
