<svg width="97" height="24" viewBox="0 0 97 24" fill="none" xmlns="http://www.w3.org/2000/svg">
<path fill-rule="evenodd" clip-rule="evenodd" d="M11.6127 2.04385C11.6127 3.16577 10.7096 4.07609 9.59476 4.07609V4.07523C8.48074 4.07523 7.57683 3.16491 7.57683 2.04299C7.57683 0.921063 8.47988 0.0107422 9.59476 0.0107422C10.7096 0.0107422 11.6127 0.921927 11.6127 2.04385ZM12.8906 10.0481H16.2198C17.8612 10.0481 19.1914 11.3876 19.1914 13.0407H13.4394L15.7078 15.3252C16.8681 16.4937 16.8681 18.3887 15.7078 19.5572L11.0373 14.8536V21.5739C11.0373 22.9083 9.9636 23.9896 8.63861 23.9896H8.1695V14.8018L3.36436 19.641C2.20403 18.4724 2.20403 16.5775 3.36436 15.409L5.7159 13.0399H0C0 11.3868 1.33014 10.0472 2.97158 10.0472H6.26563L2.23834 5.99136C3.39867 4.8228 5.28024 4.8228 6.44058 5.99136L9.57854 9.15157L12.5313 6.17792C13.6916 5.00936 15.5732 5.00936 16.7335 6.17792L12.8906 10.0481Z" fill="#6C40ED"/>
<path fill-rule="evenodd" clip-rule="evenodd" d="M81.9907 2.03224C81.9907 3.15462 81.0873 4.06449 79.9728 4.06449C78.8583 4.06449 77.9548 3.15462 77.9548 2.03224C77.9548 0.909867 78.8583 0 79.9728 0C81.0873 0 81.9907 0.909867 81.9907 2.03224ZM94.8889 14.5004H94.7062C93.9026 14.5004 93.2629 15.1447 92.7877 15.7967C92.551 16.1224 92.2423 16.3944 91.8735 16.5801C91.467 16.7848 90.9816 16.8876 90.4191 16.8876C89.6678 16.8876 89.0503 16.714 88.5649 16.3676C88.0958 16.0213 87.7442 15.5402 87.5092 14.9262C87.2905 14.3121 87.1808 13.6263 87.1808 12.8706C87.1808 12.1149 87.2982 11.3902 87.5332 10.7908C87.7674 10.1768 88.1198 9.69569 88.5889 9.34936C89.0735 9.00302 89.6755 8.82942 90.395 8.82942C91.2398 8.82942 92.0185 9.14035 92.5416 9.70779C93.1557 10.3745 93.8675 11.145 94.7714 11.145H96.3554C96.2928 10.1206 95.9952 9.22326 95.4635 8.45113C94.9472 7.679 94.2508 7.08046 93.3752 6.65553C92.4996 6.21419 91.5056 5.99395 90.395 5.99395C89.2844 5.99395 88.3934 6.1831 87.5795 6.56139C86.782 6.92414 86.1096 7.41989 85.5616 8.05038C85.0145 8.66446 84.5994 9.37354 84.3181 10.1768C84.0522 10.9644 83.9193 11.7919 83.9193 12.6581V13.1072C83.9193 13.926 84.0522 14.7301 84.3181 15.5178C84.5839 16.3055 84.9827 17.0145 85.5144 17.6442C86.0616 18.2746 86.7339 18.7782 87.5324 19.1565C88.3454 19.5348 89.3076 19.7239 90.4182 19.7239C91.5288 19.7239 92.545 19.5037 93.4215 19.0623C94.3126 18.621 95.0244 18.0147 95.5561 17.2425C96.1041 16.4549 96.4085 15.5411 96.4711 14.5012H94.888L94.8889 14.5004ZM78.7088 6.44379V6.44465C77.7217 6.4602 76.9258 7.26947 76.9258 8.26789V8.90096H78.7088V19.2747C80.5097 19.2747 81.9702 17.8038 81.9702 15.9901V6.44379H78.7088ZM74.0603 7.93125C73.5441 7.33272 72.918 6.86806 72.1831 6.53727C71.4635 6.20648 70.6497 6.04065 69.7432 6.04065C68.7578 6.04065 67.8659 6.26089 67.0683 6.70223C66.2708 7.12716 65.6293 7.78097 65.1447 8.66365C64.9895 8.95558 64.8566 9.27169 64.7459 9.61111V6.44313C63.3206 6.44313 62.1654 7.60651 62.1654 9.04281V24.0001C63.9664 24.0001 65.4269 22.5292 65.4269 20.7155V17.5777C65.8797 18.2453 66.4431 18.7566 67.1163 19.109C67.9139 19.5029 68.7904 19.6998 69.744 19.6998C70.6977 19.6998 71.4721 19.5348 72.2079 19.2032C72.9429 18.8568 73.5689 18.3844 74.0852 17.7859C74.6169 17.1718 75.0157 16.4705 75.2816 15.6828C75.5628 14.8796 75.7035 14.0133 75.7035 13.084V12.5874C75.7035 11.6736 75.5628 10.8229 75.2816 10.0352C75.0003 9.23196 74.5929 8.53065 74.0612 7.93212L74.0603 7.93125ZM71.9952 14.9729C71.6985 15.5869 71.2834 16.068 70.7517 16.4143C70.2354 16.7607 69.6257 16.9343 68.9216 16.9343C68.3118 16.9343 67.733 16.7926 67.185 16.5085C66.6378 16.2252 66.1919 15.8236 65.848 15.3036C65.5041 14.7837 65.3317 14.1532 65.3317 13.413V12.4682C65.3317 11.696 65.4963 11.0345 65.8248 10.4834C66.1687 9.9324 66.6069 9.51438 67.1386 9.23109C67.6858 8.94781 68.281 8.80616 68.9216 8.80616C69.6257 8.80616 70.2354 8.97976 70.7517 9.3261C71.2834 9.65689 71.6985 10.1215 71.9952 10.7201C72.2928 11.3186 72.4412 12.0277 72.4412 12.8465C72.4412 13.6652 72.2928 14.3432 71.9952 14.9729ZM56.1621 6.53721C57.0222 6.88354 57.7495 7.37152 58.3438 8.00201H58.3447C58.9544 8.61609 59.4158 9.32517 59.7288 10.1284C60.0419 10.9161 60.1979 11.7513 60.1979 12.6331V13.1297C60.1979 13.9804 60.0419 14.7992 59.7288 15.5869C59.4312 16.3745 58.9853 17.0828 58.391 17.7133C57.7967 18.3273 57.0694 18.8153 56.2092 19.1781C55.3491 19.5399 54.38 19.7213 53.2531 19.7213C52.1262 19.7213 51.1331 19.5399 50.2729 19.1781C49.4128 18.8162 48.6855 18.3273 48.0912 17.7133C47.4969 17.0836 47.0432 16.3745 46.7302 15.5869C46.4326 14.7992 46.2842 13.9804 46.2842 13.1297V12.6331C46.2842 11.7513 46.4403 10.9161 46.7533 10.1284C47.0818 9.32517 47.5432 8.61609 48.1375 8.00201C48.7481 7.37239 49.4831 6.88354 50.3433 6.53721C51.2034 6.17532 52.1725 5.99395 53.2522 5.99395C54.332 5.99395 55.3019 6.17532 56.1621 6.53721ZM55.2702 16.391C55.8173 16.0282 56.2324 15.548 56.5137 14.9495C56.7958 14.3345 56.9365 13.6574 56.9365 12.8697C56.9365 12.082 56.7881 11.3885 56.4905 10.79C56.2092 10.1759 55.7873 9.69483 55.2239 9.34849C54.6767 8.98661 54.0198 8.80524 53.2531 8.80524C52.4864 8.80524 51.8218 8.98575 51.2583 9.34849C50.7112 9.69483 50.2892 10.1759 49.9916 10.79C49.6941 11.3894 49.5457 12.0976 49.5457 12.8697C49.5457 13.6419 49.6863 14.3354 49.9676 14.9495C50.2644 15.548 50.6872 16.0282 51.2343 16.391C51.7823 16.7373 52.4547 16.9109 53.2522 16.9109C54.0498 16.9109 54.723 16.7373 55.2702 16.391ZM42.0967 7.69555C41.5058 8.40981 41.1379 9.38059 40.9938 10.6079V6.44321H40.9544C39.5505 6.44321 38.4125 7.58932 38.4125 9.00316V19.2741H38.7023C40.3438 19.2741 41.6739 17.9336 41.6739 16.2814V12.5874C41.6739 11.469 41.9715 10.6182 42.5658 10.0353C43.0083 9.6017 43.5272 9.37714 44.0803 9.2614C45.13 9.04117 46.0151 8.26212 46.0151 7.18166V6.27825H45.546C44.0289 6.27825 42.8788 6.75068 42.0967 7.69641V7.69555ZM32.1946 2.82738H32.6688H32.6697L32.6628 6.44276H36.5881V6.4773C36.5881 7.78924 35.5315 8.85329 34.2288 8.85329H32.6577L32.6465 14.6659C32.6465 15.2955 32.8103 15.7843 33.1388 16.1307C33.4827 16.4615 33.9672 16.6273 34.5933 16.6273C35.6953 16.6273 36.5881 17.5273 36.5881 18.6362V19.4394H34.758C33.5848 19.4394 32.6157 19.2892 31.849 18.9903C31.0977 18.6751 30.5351 18.1551 30.1595 17.4305C29.7839 16.6903 29.5961 15.698 29.5961 14.4534L29.6072 8.85329H27.5781V8.67451C27.5781 7.50336 28.4735 6.54381 29.6124 6.45053L29.6141 5.42102C29.6166 3.98817 30.771 2.82738 32.1946 2.82738Z" fill="#292929"/>
</svg>
